<?xml version="1.0" encoding="UTF-8" standalone="no"?>
<svg
   xmlns:dc="http://purl.org/dc/elements/1.1/"
   xmlns:cc="http://creativecommons.org/ns#"
   xmlns:rdf="http://www.w3.org/1999/02/22-rdf-syntax-ns#"
   xmlns:svg="http://www.w3.org/2000/svg"
   xmlns="http://www.w3.org/2000/svg"
   xmlns:sodipodi="http://sodipodi.sourceforge.net/DTD/sodipodi-0.dtd"
   xmlns:inkscape="http://www.inkscape.org/namespaces/inkscape"
   viewBox="0 0 400 150"
   version="1.1"
   id="svg85"
   sodipodi:docname="button.svg"
   inkscape:version="0.92.2 5c3e80d, 2017-08-06"
   inkscape:export-filename="button.png"
   inkscape:export-xdpi="96"
   inkscape:export-ydpi="96"
   width="400"
   height="150">
  <metadata
     id="metadata89">
    <rdf:RDF>
      <cc:Work
         rdf:about="">
        <dc:format>image/svg+xml</dc:format>
        <dc:type
           rdf:resource="http://purl.org/dc/dcmitype/StillImage" />
        <dc:title>camera-other</dc:title>
      </cc:Work>
    </rdf:RDF>
  </metadata>
  <sodipodi:namedview
     pagecolor="#ffffff"
     bordercolor="#666666"
     borderopacity="1"
     objecttolerance="10"
     gridtolerance="10"
     guidetolerance="10"
     inkscape:pageopacity="0"
     inkscape:pageshadow="2"
     inkscape:window-width="1280"
     inkscape:window-height="756"
     id="namedview87"
     showgrid="false"
     inkscape:zoom="1.3037281"
     inkscape:cx="198.42524"
     inkscape:cy="212.23114"
     inkscape:window-x="0"
     inkscape:window-y="27"
     inkscape:window-maximized="0"
     inkscape:current-layer="Layer_1" />
  <defs
     id="defs12">
    <linearGradient
       id="linear-gradient"
       y1="222.62"
       x2="445.23999"
       y2="222.62"
       gradientUnits="userSpaceOnUse"
       gradientTransform="matrix(0.17423236,0,0,0.17423236,160.63657,377.83357)">
      <stop
         offset="0"
         stop-color="#fff"
         id="stop2" />
      <stop
         offset="1"
         stop-color="#d0d3d4"
         id="stop4" />
    </linearGradient>
    <linearGradient
       id="linear-gradient-2"
       x1="11.13"
       y1="222.62"
       x2="434.10999"
       y2="222.62"
       gradientUnits="userSpaceOnUse"
       gradientTransform="matrix(0.17423236,0,0,0.17423236,160.63657,377.83357)">
      <stop
         offset="0"
         stop-color="#d0d3d4"
         id="stop7" />
      <stop
         offset="1"
         stop-color="#fff"
         id="stop9" />
    </linearGradient>
  </defs>
  <title
     id="title14">camera-other</title>
  <g
     style="isolation:isolate"
     id="g83"
     transform="translate(0,-362)">
    <g
       id="Layer_1"
       data-name="Layer 1">
      <path
         d="m 199.42418,455.40877 c -21.38703,0 -38.78761,-17.40058 -38.78761,-38.78759 0,-21.38704 17.40058,-38.78762 38.78761,-38.78762 21.38702,0 38.7876,17.40058 38.7876,38.78762 0,21.38701 -17.40058,38.78759 -38.7876,38.78759 z"
         id="path62"
         style="fill:url(#linear-gradient);stroke-width:0.17423236"
         inkscape:connector-curvature="0" />
      <path
         d="m 199.42418,453.46957 c -20.31899,0 -36.84841,-16.52941 -36.84841,-36.84839 0,-20.31899 16.52942,-36.84842 36.84841,-36.84842 20.31897,0 36.84839,16.52943 36.84839,36.84842 0,20.31898 -16.52942,36.84839 -36.84839,36.84839 z"
         id="path64"
         style="fill:url(#linear-gradient-2);stroke-width:0.17423236"
         inkscape:connector-curvature="0" />
      <g
         id="g906"
         transform="matrix(0.1187185,0,0,0.1187185,150.01126,388.32602)">
        <g
           id="g904"
           transform="matrix(0.1,0,0,-0.1,0,511)">
          <path
             id="path898"
             d="M 4026.4,4998.9 C 3142.5,4902.7 2352.3,4272 2058.5,3428.6 c -126.6,-364.7 -157,-815.5 -81,-1185.3 73.4,-359.6 157,-486.3 316.6,-486.3 73.4,0 108.9,17.7 159.6,78.5 78.5,93.7 81,121.6 12.7,314.1 -103.8,298.8 -108.9,764.9 -7.6,1101.7 116.5,397.6 430.6,807.9 780.1,1023.2 873.8,539.5 2059.1,291.3 2596,-542 296.3,-455.9 377.4,-1056.1 217.8,-1567.7 -48.1,-149.4 -58.2,-215.3 -40.5,-263.4 50.7,-131.7 233,-187.4 349.5,-106.4 73.4,53.2 177.3,379.9 210.2,663.6 50.6,455.9 -68.4,985.2 -319.1,1405.6 -157,265.9 -514.1,628.1 -769.9,785.1 -443.4,276.2 -972.7,400.3 -1456.5,349.6 z"
             inkscape:connector-curvature="0" />
          <path
             id="path900"
             d="M 3950.4,4175.8 C 3403.3,4054.2 2950,3623.7 2782.8,3061.4 c -91.2,-303.9 -35.5,-876.3 93.7,-980.2 73.4,-63.3 227.9,-58.3 296.3,5.1 78.5,73.4 88.6,144.4 43.1,316.6 -121.6,471.1 78.5,980.2 481.2,1215.7 164.6,98.8 400.2,146.9 633.2,134.2 478.7,-30.4 818,-291.3 954.8,-737 53.2,-174.8 53.2,-341.9 5.1,-734.5 -12.7,-103.8 -7.6,-131.7 43.1,-184.9 68.4,-70.9 207.7,-83.6 293.8,-22.8 129.2,91.2 195,582.5 124.1,906.7 -68.4,306.5 -195,529.3 -430.6,764.9 -387.5,385 -876.3,539.5 -1370.2,430.6 z"
             inkscape:connector-curvature="0" />
          <path
             id="path902"
             d="m 4006.2,3393.2 c -222.9,-81.1 -420.4,-288.7 -488.8,-514.2 -27.9,-93.7 -35.5,-412.8 -35.5,-1595.6 V -195.7 l -55.7,20.3 c -32.9,10.1 -149.4,20.2 -260.9,20.2 -174.8,0 -217.8,-10.1 -319.1,-68.4 -141.8,-83.6 -291.3,-245.7 -354.6,-385 -43.1,-96.2 -48.1,-184.9 -48.1,-1372.7 0,-1180.2 2.5,-1281.5 50.7,-1463.9 157,-618 640.8,-1101.7 1284.1,-1286.6 192.5,-58.3 222.9,-58.3 1476.6,-58.3 1253.7,0 1284.1,0 1476.6,58.3 595.2,172.2 1035.9,585.1 1253.7,1175.2 l 68.4,184.9 7.6,1529.7 c 7.6,1732.4 12.7,1676.7 -187.4,1899.5 -63.3,70.9 -174.8,157 -250.7,195 -121.5,58.3 -162.1,65.9 -321.6,55.7 -101.3,-7.6 -202.6,-20.3 -222.9,-30.4 -30.4,-12.7 -48.1,7.6 -73.5,78.5 -50.7,141.8 -293.8,369.8 -443.2,420.4 -149.4,50.7 -347,53.2 -476.1,7.6 -91.2,-32.9 -93.7,-32.9 -108.9,35.4 -40.5,190 -311.5,445.8 -531.9,506.5 -111.4,30.4 -329.3,25.3 -423,-12.7 -43,-17.7 -45.6,27.9 -45.6,739.6 0,623 -7.6,780.1 -40.5,876.3 -91.2,265.9 -415.4,499 -691.4,499 -78.8,-2.3 -185.1,-17.5 -238.3,-35.2 z m 425.5,-461 c 111.4,-73.4 119,-172.2 114,-1339.8 -2.5,-597.7 -5.1,-1319.6 -2.5,-1603.2 2.5,-509.1 2.5,-514.2 65.8,-574.9 76,-78.5 210.2,-83.6 293.8,-15.2 60.8,48.1 60.8,53.2 73.5,711.7 l 12.7,663.6 70.9,60.8 c 101.3,86.1 314.1,86.1 415.4,0 l 70.9,-60.8 12.7,-650.9 12.7,-650.9 70.9,-60.8 c 98.8,-83.6 205.1,-78.5 298.9,12.7 l 73.4,73.5 v 331.8 c 0,179.8 10.1,357.1 25.3,392.6 35.5,96.3 134.3,146.9 278.6,146.9 243.1,0 324.2,-124.1 291.3,-458.4 -20.2,-220.4 -20.2,-314 2.5,-691.4 15.2,-263.4 17.8,-276.1 91.2,-336.8 86.1,-73.5 144.4,-78.5 245.7,-25.3 106.3,53.2 129.2,154.5 129.2,567.3 0,326.7 5.1,372.3 45.6,397.6 139.3,88.6 379.9,55.7 455.9,-58.3 40.5,-63.3 43,-182.4 43,-1527.2 0,-1314.5 -5.1,-1471.5 -45.6,-1618.4 -131.7,-481.2 -496.4,-820.6 -995.4,-927 -265.9,-55.7 -2388.3,-55.7 -2661.9,2.5 -483.7,98.8 -828.2,412.9 -985.2,896.6 -40.5,124.1 -45.6,268.5 -53.2,1367.7 -7.6,1137.2 -5.1,1235.9 35.5,1317 81,159.6 331.8,192.5 481.2,63.3 l 70.9,-58.3 12.7,-668.6 c 12.7,-678.8 25.3,-754.7 116.5,-790.2 50.7,-20.3 172.2,-20.3 225.4,0 116.5,45.6 114,7.6 114,2580.8 V 2826 l 73.4,73.4 c 65.8,63.3 93.7,73.4 217.8,73.4 86,-0.1 164.5,-15.3 202.5,-40.6 z"
             inkscape:connector-curvature="0" />
        </g>
      </g>
    </g>
  </g>
</svg>
