<?xml version="1.0" encoding="UTF-8" standalone="no"?>
<!-- Generator: Adobe Illustrator 19.0.0, SVG Export Plug-In . SVG Version: 6.00 Build 0)  -->

<svg
   xmlns:dc="http://purl.org/dc/elements/1.1/"
   xmlns:cc="http://creativecommons.org/ns#"
   xmlns:rdf="http://www.w3.org/1999/02/22-rdf-syntax-ns#"
   xmlns:svg="http://www.w3.org/2000/svg"
   xmlns="http://www.w3.org/2000/svg"
   xmlns:sodipodi="http://sodipodi.sourceforge.net/DTD/sodipodi-0.dtd"
   xmlns:inkscape="http://www.inkscape.org/namespaces/inkscape"
   version="1.1"
   id="Layer_1"
   x="0px"
   y="0px"
   viewBox="0 0 400 150"
   xml:space="preserve"
   sodipodi:docname="usb.svg"
   width="400"
   height="150"
   inkscape:version="0.92.2 5c3e80d, 2017-08-06"
   inkscape:export-filename="usb.png"
   inkscape:export-xdpi="96"
   inkscape:export-ydpi="96"><metadata
     id="metadata11"><rdf:RDF><cc:Work
         rdf:about=""><dc:format>image/svg+xml</dc:format><dc:type
           rdf:resource="http://purl.org/dc/dcmitype/StillImage" /><dc:title></dc:title></cc:Work></rdf:RDF></metadata><defs
     id="defs9" /><sodipodi:namedview
     pagecolor="#ffffff"
     bordercolor="#666666"
     borderopacity="1"
     objecttolerance="10"
     gridtolerance="10"
     guidetolerance="10"
     inkscape:pageopacity="0"
     inkscape:pageshadow="2"
     inkscape:window-width="1280"
     inkscape:window-height="756"
     id="namedview7"
     showgrid="false"
     inkscape:zoom="1.7383042"
     inkscape:cx="182.07942"
     inkscape:cy="109.42578"
     inkscape:window-x="0"
     inkscape:window-y="27"
     inkscape:window-maximized="0"
     inkscape:current-layer="Layer_1" /><style
     type="text/css"
     id="style2">
	.st0{fill:#333333;}
</style><g
     id="XMLID_2_"
     transform="matrix(2.049373,0,0,2.049373,105.80678,-22.098355)"><path
       id="XMLID_4_"
       class="st0"
       d="m 56.8,35 v 11.3 h 2.8 V 52 H 51.1 V 29.3 h 5.7 L 48.3,18 39.8,29.3 h 5.7 V 52 H 37 v -5.9 c 2,-1 3.4,-3.1 3.4,-5.5 0,-3.4 -2.8,-6.2 -6.2,-6.2 -3.4,0 -6.2,2.8 -6.2,6.2 0,2.4 1.4,4.4 3.4,5.5 V 52 c 0,3.1 2.5,5.7 5.7,5.7 h 8.5 v 8.6 c -2,1 -3.4,3.1 -3.4,5.5 0,3.4 2.8,6.2 6.2,6.2 3.4,0 6.2,-2.8 6.2,-6.2 0,-2.4 -1.4,-4.5 -3.4,-5.5 v -8.6 h 8.5 c 3.1,0 5.7,-2.5 5.7,-5.7 v -5.7 h 2.8 V 35 Z"
       inkscape:connector-curvature="0"
       style="fill:#333333" /></g></svg>