<?xml version="1.0" encoding="UTF-8" standalone="no"?>
<!-- Created with Inkscape (http://www.inkscape.org/) -->

<svg
   xmlns:dc="http://purl.org/dc/elements/1.1/"
   xmlns:cc="http://creativecommons.org/ns#"
   xmlns:rdf="http://www.w3.org/1999/02/22-rdf-syntax-ns#"
   xmlns:svg="http://www.w3.org/2000/svg"
   xmlns="http://www.w3.org/2000/svg"
   xmlns:xlink="http://www.w3.org/1999/xlink"
   xmlns:sodipodi="http://sodipodi.sourceforge.net/DTD/sodipodi-0.dtd"
   xmlns:inkscape="http://www.inkscape.org/namespaces/inkscape"
   width="256"
   height="256"
   viewBox="0 0 256 256"
   id="svg2"
   version="1.1"
   inkscape:version="0.92.2 (5c3e80d, 2017-08-06)"
   sodipodi:docname="arduino.svg"
   inkscape:export-filename="arduino.png"
   inkscape:export-xdpi="96"
   inkscape:export-ydpi="96">
  <defs
     id="defs4">
    <linearGradient
       id="linearGradient5215">
      <stop
         id="stop5217"
         offset="0"
         style="stop-color:#f1f1f1;stop-opacity:1;" />
      <stop
         id="stop5219"
         offset="1"
         style="stop-color:#000000;stop-opacity:0.4054054;" />
    </linearGradient>
    <linearGradient
       id="linearGradient5205">
      <stop
         id="stop5207"
         offset="0"
         style="stop-color:#d8d8d8;stop-opacity:1;" />
      <stop
         id="stop5209"
         offset="1"
         style="stop-color:#000000;stop-opacity:0;" />
    </linearGradient>
    <linearGradient
       id="linearGradient4753">
      <stop
         style="stop-color:#101010;stop-opacity:1;"
         offset="0"
         id="stop4755" />
      <stop
         id="stop4761"
         offset="0.47657159"
         style="stop-color:#acacac;stop-opacity:1;" />
      <stop
         id="stop4759"
         offset="0.60369939"
         style="stop-color:#acacac;stop-opacity:1;" />
      <stop
         style="stop-color:#3e3e3e;stop-opacity:1;"
         offset="1"
         id="stop4757" />
    </linearGradient>
    <linearGradient
       id="linearGradient4249">
      <stop
         id="stop4251"
         offset="0"
         style="stop-color:#afafaf;stop-opacity:1;" />
      <stop
         id="stop4253"
         offset="1"
         style="stop-color:#0b0b0b;stop-opacity:1;" />
    </linearGradient>
    <linearGradient
       id="linearGradient4233">
      <stop
         id="stop4235"
         offset="0"
         style="stop-color:#6f6f6f;stop-opacity:1;" />
      <stop
         style="stop-color:#ffffff;stop-opacity:1"
         offset="0.0808401"
         id="stop4247" />
      <stop
         style="stop-color:#616161;stop-opacity:1;"
         offset="0.125"
         id="stop4245" />
      <stop
         style="stop-color:#535353;stop-opacity:1;"
         offset="0.25"
         id="stop4243" />
      <stop
         style="stop-color:#373737;stop-opacity:1;"
         offset="0.5"
         id="stop4241" />
      <stop
         id="stop4237"
         offset="1"
         style="stop-color:#000000;stop-opacity:1;" />
    </linearGradient>
    <linearGradient
       id="linearGradient4029">
      <stop
         id="stop4031"
         offset="0"
         style="stop-color:#3e3e3e;stop-opacity:1;" />
      <stop
         id="stop4033"
         offset="1"
         style="stop-color:#ffffff;stop-opacity:1;" />
    </linearGradient>
    <linearGradient
       id="linearGradient4981">
      <stop
         id="stop4983"
         offset="0"
         style="stop-color:#370000;stop-opacity:1;" />
      <stop
         id="stop4985"
         offset="1"
         style="stop-color:#616200;stop-opacity:1;" />
    </linearGradient>
    <linearGradient
       id="linearGradient4903">
      <stop
         id="stop4905"
         offset="0"
         style="stop-color:#c60000;stop-opacity:1;" />
      <stop
         style="stop-color:#ff0000;stop-opacity:1;"
         offset="0.04422363"
         id="stop4907" />
      <stop
         style="stop-color:#ff8b00;stop-opacity:1;"
         offset="0.36034104"
         id="stop4909" />
      <stop
         id="stop4911"
         offset="1"
         style="stop-color:#ffff00;stop-opacity:1;" />
    </linearGradient>
    <linearGradient
       id="linearGradient4873">
      <stop
         style="stop-color:#c60000;stop-opacity:1;"
         offset="0"
         id="stop4875" />
      <stop
         id="stop4877"
         offset="0.38491711"
         style="stop-color:#ff0000;stop-opacity:1;" />
      <stop
         id="stop4879"
         offset="0.77155995"
         style="stop-color:#ff8b00;stop-opacity:1;" />
      <stop
         style="stop-color:#ffff00;stop-opacity:1;"
         offset="1"
         id="stop4881" />
    </linearGradient>
    <linearGradient
       id="linearGradient4821">
      <stop
         id="stop4823"
         offset="0"
         style="stop-color:#c60000;stop-opacity:1;" />
      <stop
         style="stop-color:#ff0000;stop-opacity:1;"
         offset="0.38577998"
         id="stop4861" />
      <stop
         style="stop-color:#ff8b00;stop-opacity:1;"
         offset="0.77155995"
         id="stop4829" />
      <stop
         id="stop4825"
         offset="1"
         style="stop-color:#ffff00;stop-opacity:1;" />
    </linearGradient>
    <linearGradient
       id="linearGradient4809">
      <stop
         id="stop4811"
         offset="0"
         style="stop-color:#fa8400;stop-opacity:1;" />
      <stop
         style="stop-color:#fcc100;stop-opacity:1;"
         offset="0.25452197"
         id="stop4817" />
      <stop
         id="stop4813"
         offset="1"
         style="stop-color:#ffff00;stop-opacity:1;" />
    </linearGradient>
    <linearGradient
       id="linearGradient4344">
      <stop
         id="stop4346"
         offset="0"
         style="stop-color:#ef0000;stop-opacity:1;" />
      <stop
         style="stop-color:#f75401;stop-opacity:1;"
         offset="0.45368573"
         id="stop4805" />
      <stop
         id="stop4348"
         offset="1"
         style="stop-color:#fff802;stop-opacity:1;" />
    </linearGradient>
    <symbol
       id="*Paper_Space0" />
    <symbol
       id="*Paper_Space" />
    <symbol
       id="*Model_Space" />
    <pattern
       y="0"
       x="0"
       width="8"
       patternUnits="userSpaceOnUse"
       id="Hatch"
       height="8">
      <path
         id="path3049"
         stroke-width="0.25"
         stroke="#000000"
         linecap="square"
         d="M8 4 l-4,4" />
      <path
         id="path3051"
         stroke-width="0.25"
         stroke="#000000"
         linecap="square"
         d="M6 2 l-4,4" />
      <path
         id="path3053"
         stroke-width="0.25"
         stroke="#000000"
         linecap="square"
         d="M4 0 l-4,4" />
    </pattern>
    <marker
       style="overflow:visible"
       id="DistanceX"
       orient="auto"
       refY="0"
       refX="0">
      <path
         style="stroke:#000000;stroke-width:0.5"
         id="path3046"
         d="M 3,-3 -3,3 M 0,-5 V 5"
         inkscape:connector-curvature="0" />
    </marker>
    <linearGradient
       gradientUnits="userSpaceOnUse"
       y2="733.44366"
       x2="305.03671"
       y1="641.96503"
       x1="50.162903"
       id="linearGradient4035"
       xlink:href="#linearGradient4029"
       inkscape:collect="always" />
    <linearGradient
       gradientUnits="userSpaceOnUse"
       y2="697.80835"
       x2="326.39456"
       y1="697.80835"
       x1="48.514042"
       id="linearGradient4255"
       xlink:href="#linearGradient4249"
       inkscape:collect="always" />
    <linearGradient
       y2="650.30981"
       x2="67.791367"
       y1="632.71771"
       x1="56.430466"
       gradientUnits="userSpaceOnUse"
       id="linearGradient4332-7"
       xlink:href="#linearGradient4249"
       inkscape:collect="always" />
    <linearGradient
       y2="650.30981"
       x2="67.791367"
       y1="632.71771"
       x1="56.430466"
       gradientTransform="translate(16.462108,6.0241868)"
       gradientUnits="userSpaceOnUse"
       id="linearGradient4629"
       xlink:href="#linearGradient4249"
       inkscape:collect="always" />
    <linearGradient
       y2="650.30981"
       x2="67.791367"
       y1="632.71771"
       x1="56.430466"
       gradientTransform="translate(32.653947,11.977068)"
       gradientUnits="userSpaceOnUse"
       id="linearGradient4631"
       xlink:href="#linearGradient4249"
       inkscape:collect="always" />
    <linearGradient
       y2="650.30981"
       x2="67.791367"
       y1="632.71771"
       x1="56.430466"
       gradientTransform="translate(49.0839,18.168066)"
       gradientUnits="userSpaceOnUse"
       id="linearGradient4633"
       xlink:href="#linearGradient4249"
       inkscape:collect="always" />
    <linearGradient
       y2="650.30981"
       x2="67.791367"
       y1="632.71771"
       x1="56.430466"
       gradientTransform="translate(65.513853,24.359063)"
       gradientUnits="userSpaceOnUse"
       id="linearGradient4635"
       xlink:href="#linearGradient4249"
       inkscape:collect="always" />
    <linearGradient
       y2="650.30981"
       x2="67.791367"
       y1="632.71771"
       x1="56.430466"
       gradientTransform="translate(81.467577,30.311944)"
       gradientUnits="userSpaceOnUse"
       id="linearGradient4637"
       xlink:href="#linearGradient4249"
       inkscape:collect="always" />
    <linearGradient
       y2="650.30981"
       x2="67.791367"
       y1="632.71771"
       x1="56.430466"
       gradientTransform="translate(97.89753,36.02671)"
       gradientUnits="userSpaceOnUse"
       id="linearGradient4639"
       xlink:href="#linearGradient4249"
       inkscape:collect="always" />
    <linearGradient
       y2="650.30981"
       x2="67.791367"
       y1="632.71771"
       x1="56.430466"
       gradientTransform="translate(115.04183,41.741477)"
       gradientUnits="userSpaceOnUse"
       id="linearGradient4641"
       xlink:href="#linearGradient4249"
       inkscape:collect="always" />
    <linearGradient
       y2="650.30981"
       x2="67.791367"
       y1="632.71771"
       x1="56.430466"
       gradientTransform="translate(130.99555,47.694359)"
       gradientUnits="userSpaceOnUse"
       id="linearGradient4643"
       xlink:href="#linearGradient4249"
       inkscape:collect="always" />
    <linearGradient
       y2="650.30981"
       x2="67.791367"
       y1="632.71771"
       x1="56.430466"
       gradientTransform="translate(147.66362,53.647241)"
       gradientUnits="userSpaceOnUse"
       id="linearGradient4645"
       xlink:href="#linearGradient4249"
       inkscape:collect="always" />
    <linearGradient
       y2="650.30981"
       x2="67.791367"
       y1="632.71771"
       x1="56.430466"
       gradientTransform="translate(164.09357,59.838237)"
       gradientUnits="userSpaceOnUse"
       id="linearGradient4647"
       xlink:href="#linearGradient4249"
       inkscape:collect="always" />
    <linearGradient
       y2="650.30981"
       x2="67.791367"
       y1="632.71771"
       x1="56.430466"
       gradientTransform="translate(180.52353,65.314889)"
       gradientUnits="userSpaceOnUse"
       id="linearGradient4649"
       xlink:href="#linearGradient4249"
       inkscape:collect="always" />
    <linearGradient
       y2="650.30981"
       x2="67.791367"
       y1="632.71771"
       x1="56.430466"
       gradientTransform="translate(196.71536,71.744001)"
       gradientUnits="userSpaceOnUse"
       id="linearGradient4651"
       xlink:href="#linearGradient4249"
       inkscape:collect="always" />
    <linearGradient
       y2="650.30981"
       x2="67.791367"
       y1="632.71771"
       x1="56.430466"
       gradientTransform="translate(212.66909,77.934999)"
       gradientUnits="userSpaceOnUse"
       id="linearGradient4653"
       xlink:href="#linearGradient4249"
       inkscape:collect="always" />
    <linearGradient
       y2="650.30981"
       x2="67.791367"
       y1="632.71771"
       x1="56.430466"
       gradientTransform="translate(229.57527,82.935419)"
       gradientUnits="userSpaceOnUse"
       id="linearGradient4655"
       xlink:href="#linearGradient4249"
       inkscape:collect="always" />
    <linearGradient
       y2="650.30981"
       x2="67.791367"
       y1="632.71771"
       x1="56.430466"
       gradientTransform="translate(246.00523,89.126416)"
       gradientUnits="userSpaceOnUse"
       id="linearGradient4657"
       xlink:href="#linearGradient4249"
       inkscape:collect="always" />
    <linearGradient
       y2="733.44366"
       x2="305.03671"
       y1="641.96503"
       x1="50.162903"
       gradientTransform="translate(0.11034178,-0.45120379)"
       gradientUnits="userSpaceOnUse"
       id="linearGradient4692"
       xlink:href="#linearGradient4029"
       inkscape:collect="always" />
    <linearGradient
       y2="733.44366"
       x2="305.03671"
       y1="641.96503"
       x1="50.162903"
       gradientTransform="translate(-94.138416,56.066335)"
       gradientUnits="userSpaceOnUse"
       id="linearGradient4704-3"
       xlink:href="#linearGradient4029"
       inkscape:collect="always" />
    <linearGradient
       inkscape:collect="always"
       xlink:href="#linearGradient4753"
       id="linearGradient4785"
       gradientUnits="userSpaceOnUse"
       gradientTransform="translate(-94.138416,56.066335)"
       x1="462.33984"
       y1="762.51996"
       x2="447.14349"
       y2="713.91241" />
  </defs>
  <sodipodi:namedview
     id="base"
     pagecolor="#ffffff"
     bordercolor="#666666"
     borderopacity="1.0"
     inkscape:pageopacity="0.0"
     inkscape:pageshadow="2"
     inkscape:zoom="1.0058594"
     inkscape:cx="79.036898"
     inkscape:cy="256"
     inkscape:document-units="px"
     inkscape:current-layer="g4234"
     showgrid="false"
     units="px"
     inkscape:window-width="1920"
     inkscape:window-height="1025"
     inkscape:window-x="0"
     inkscape:window-y="27"
     inkscape:window-maximized="1" />
  <metadata
     id="metadata7">
    <rdf:RDF>
      <cc:Work
         rdf:about="">
        <dc:format>image/svg+xml</dc:format>
        <dc:type
           rdf:resource="http://purl.org/dc/dcmitype/StillImage" />
        <dc:title></dc:title>
      </cc:Work>
    </rdf:RDF>
  </metadata>
  <g
     inkscape:label="Layer 1"
     inkscape:groupmode="layer"
     id="layer1"
     transform="translate(0,-796.36216)">
    <g
       id="g4234"
       transform="translate(76.891726,506.30197)">
      <g
         id="g4236"
         transform="matrix(0.70554117,0,0,0.70554117,-86.947194,298.43142)">
        <path
           id="path4238"
           d="m 362.307,132.989 c 0,-43.243 -36.475,-78.422 -81.307,-78.422 -4.139,0 -8.347,0.283 -12.509,0.884 -34.84,4.969 -58.154,30.031 -71.203,49.249 -13.094,-19.218 -36.408,-44.279 -71.237,-49.249 -4.163,-0.604 -8.381,-0.884 -12.509,-0.884 -44.856,0 -81.321,35.179 -81.321,78.422 0,43.248 36.464,78.406 81.286,78.406 4.163,0 8.381,-0.259 12.541,-0.858 34.829,-4.996 58.143,-30.068 71.237,-49.305 13.049,19.237 36.363,44.309 71.203,49.305 4.163,0.598 8.368,0.858 12.541,0.858 44.827,-0.003 81.278,-35.159 81.278,-78.406 m -240.203,50.01 c -2.843,0.411 -5.742,0.625 -8.595,0.625 -29.483,0 -53.483,-22.737 -53.483,-50.635 0,-27.915 24.001,-50.654 53.518,-50.654 2.832,0 5.718,0.232 8.571,0.62 32.82,4.686 52.92,37.057 59.733,50.016 -6.824,12.994 -26.911,45.347 -59.744,50.028 m 90.602,-50.01 c 6.813,-12.977 26.899,-45.345 59.722,-50.032 2.843,-0.39 5.752,-0.62 8.571,-0.62 29.504,0 53.508,22.737 53.508,50.654 0,27.899 -24,50.635 -53.473,50.635 -2.843,0 -5.742,-0.214 -8.606,-0.625 -32.822,-4.683 -52.933,-37.065 -59.722,-50.012"
           inkscape:connector-curvature="0"
           style="fill:#00969b" />
        <rect
           id="rect4240"
           height="15.734"
           width="48.827"
           y="125.323"
           x="91.133003"
           style="fill:#00969b" />
        <polygon
           id="polygon4242"
           points="270.633,125.323 254.111,125.323 254.111,141.057 270.633,141.057 270.633,157.617 286.412,157.617 286.412,141.057 302.913,141.057 302.913,125.323 286.412,125.323 286.412,108.766 270.633,108.766 "
           style="fill:#00969b" />
        <path
           id="path4244"
           d="m 55.323,234.716 -14.257,45.42 h 11.505 l 2.324,-9.295 h 13.06 l 2.514,9.295 h 11.943 l -14.46,-45.42 z m 1.723,27.402 4.128,-16.637 4.478,16.637 z"
           inkscape:connector-curvature="0"
           style="fill:#00969b" />
        <path
           id="path4246"
           d="m 125.227,249.886 c 0,-8.729 -4.737,-15.17 -17.313,-15.17 H 89.61 v 45.42 h 11.245 v -14.393 h 5.661 l 6.824,14.393 h 13.287 l -8.865,-16.632 c 4.951,-2.655 7.465,-7.379 7.465,-13.618 m -18.416,6.843 h -5.955 V 243.91 h 5.731 c 5.245,0 6.677,2.014 6.677,6.041 -0.004,5.047 -2.563,6.778 -6.453,6.778"
           inkscape:connector-curvature="0"
           style="fill:#00969b" />
        <path
           id="path4248"
           d="M 149.196,234.716 H 134.32 v 45.42 h 14.943 c 19.274,0 22.547,-12.384 22.547,-23.122 0,-14.261 -5.641,-22.298 -22.614,-22.298 m 0.62,36.128 h -4.253 v -26.939 h 3.281 c 10.049,0 10.962,4.732 10.962,13.607 0.002,7.676 -0.685,13.332 -9.99,13.332"
           inkscape:connector-curvature="0"
           style="fill:#00969b" />
        <path
           id="path4250"
           d="m 205.092,262.457 c 0,6.92 -1.894,9.21 -7.005,9.21 -4.251,0 -6.925,-1.737 -6.925,-9.271 v -27.677 h -11.235 v 29.777 c 0,13.749 9.926,16.343 17.684,16.343 8.031,0 18.294,-2.853 18.294,-16.276 V 234.719 H 205.09 v 27.738 z"
           inkscape:connector-curvature="0"
           style="fill:#00969b" />
        <polygon
           id="polygon4252"
           points="260.763,270.844 248.944,270.844 248.944,244.011 260.763,244.011 260.763,234.716 225.958,234.716 225.958,244.011 237.701,244.011 237.701,270.844 225.958,270.844 225.958,280.136 260.763,280.136 "
           style="fill:#00969b" />
        <polygon
           id="polygon4254"
           points="307.493,234.716 297.014,234.716 297.014,261.984 282.295,234.716 270.034,234.716 270.034,280.136 280.684,280.136 280.604,251.073 296.114,280.136 307.493,280.136 "
           style="fill:#00969b" />
        <path
           id="path4256"
           d="m 333.986,234.126 c -13.77,0 -19.004,10.105 -19.004,23.803 0,15.023 6.011,22.908 19.06,22.908 14.607,0 19.41,-10.257 19.41,-23.397 0,-17.338 -6.54,-23.314 -19.466,-23.314 m 0.056,37.541 c -6.484,0 -7.128,-4.59 -7.128,-13.738 0,-11.099 1.061,-14.673 7.072,-14.673 6.631,0 7.534,3.091 7.534,14.184 0,10.47 -0.903,14.227 -7.478,14.227"
           inkscape:connector-curvature="0"
           style="fill:#00969b" />
        <g
           id="g4258">
          <path
             id="path4260"
             d="m 362.093,59.32 c -0.462,-1.071 -1.071,-1.99 -1.862,-2.768 -0.767,-0.777 -1.681,-1.392 -2.717,-1.86 -1.05,-0.457 -2.177,-0.689 -3.385,-0.689 -1.218,0 -2.346,0.232 -3.382,0.689 -1.05,0.468 -1.964,1.082 -2.731,1.86 -0.777,0.777 -1.397,1.697 -1.862,2.768 -0.462,1.061 -0.689,2.228 -0.689,3.492 0,1.213 0.224,2.362 0.689,3.452 0.462,1.093 1.082,2.025 1.862,2.797 0.767,0.783 1.681,1.405 2.731,1.868 1.037,0.462 2.167,0.687 3.382,0.687 1.208,0 2.335,-0.224 3.385,-0.687 1.037,-0.462 1.95,-1.082 2.717,-1.868 0.788,-0.772 1.397,-1.702 1.862,-2.797 0.452,-1.087 0.687,-2.239 0.687,-3.452 0.002,-1.264 -0.236,-2.431 -0.687,-3.492 z m -1.905,6.158 c -0.339,0.823 -0.823,1.539 -1.432,2.153 -0.62,0.62 -1.32,1.117 -2.097,1.477 -0.777,0.366 -1.624,0.548 -2.527,0.548 -0.914,0 -1.771,-0.182 -2.57,-0.548 -0.802,-0.361 -1.499,-0.858 -2.097,-1.477 -0.588,-0.615 -1.05,-1.331 -1.397,-2.153 -0.339,-0.823 -0.508,-1.715 -0.508,-2.666 0,-0.959 0.168,-1.862 0.508,-2.707 0.35,-0.847 0.812,-1.574 1.397,-2.188 0.598,-0.615 1.296,-1.101 2.097,-1.437 0.802,-0.345 1.659,-0.518 2.57,-0.518 0.903,0 1.747,0.174 2.527,0.518 0.777,0.339 1.478,0.823 2.097,1.437 0.609,0.615 1.093,1.341 1.432,2.188 0.339,0.847 0.508,1.747 0.508,2.707 0,0.954 -0.171,1.843 -0.508,2.666 z"
             inkscape:connector-curvature="0"
             style="fill:#00969b" />
          <path
             id="path4262"
             d="m 356.015,63.664 c 0.497,-0.248 0.868,-0.588 1.138,-1.021 0.259,-0.436 0.395,-0.93 0.395,-1.456 0,-0.823 -0.294,-1.544 -0.879,-2.148 -0.574,-0.604 -1.568,-0.914 -2.976,-0.914 -0.529,0 -1.005,0.011 -1.421,0.04 -0.417,0.029 -0.812,0.061 -1.194,0.112 v 8.657 h 2.177 v -2.837 h 0.879 l 1.523,2.837 h 2.482 z m -2.178,-1.173 c -0.294,0 -0.518,-0.016 -0.655,-0.067 v -2.33 c 0.136,-0.045 0.385,-0.072 0.721,-0.072 0.924,0 1.387,0.406 1.387,1.234 0.003,0.829 -0.483,1.235 -1.453,1.235 z"
             inkscape:connector-curvature="0"
             style="fill:#00969b" />
        </g>
      </g>
    </g>
  </g>
</svg>
