<?xml version="1.0" encoding="UTF-8" standalone="no"?>
<!-- Generator: Adobe Illustrator 16.0.0, SVG Export Plug-In . SVG Version: 6.00 Build 0)  -->

<svg
   xmlns:dc="http://purl.org/dc/elements/1.1/"
   xmlns:cc="http://creativecommons.org/ns#"
   xmlns:rdf="http://www.w3.org/1999/02/22-rdf-syntax-ns#"
   xmlns:svg="http://www.w3.org/2000/svg"
   xmlns="http://www.w3.org/2000/svg"
   xmlns:sodipodi="http://sodipodi.sourceforge.net/DTD/sodipodi-0.dtd"
   xmlns:inkscape="http://www.inkscape.org/namespaces/inkscape"
   version="1.1"
   id="Capa_1"
   x="0px"
   y="0px"
   width="400"
   height="150"
   viewBox="0 0 400 150"
   xml:space="preserve"
   sodipodi:docname="audio.svg"
   inkscape:version="0.92.2 5c3e80d, 2017-08-06"
   inkscape:export-filename="audio.png"
   inkscape:export-xdpi="96"
   inkscape:export-ydpi="96"><metadata
     id="metadata49"><rdf:RDF><cc:Work
         rdf:about=""><dc:format>image/svg+xml</dc:format><dc:type
           rdf:resource="http://purl.org/dc/dcmitype/StillImage" /><dc:title></dc:title></cc:Work></rdf:RDF></metadata><defs
     id="defs47" /><sodipodi:namedview
     pagecolor="#ffffff"
     bordercolor="#666666"
     borderopacity="1"
     objecttolerance="10"
     gridtolerance="10"
     guidetolerance="10"
     inkscape:pageopacity="0"
     inkscape:pageshadow="2"
     inkscape:window-width="1280"
     inkscape:window-height="756"
     id="namedview45"
     showgrid="false"
     inkscape:zoom="1.9025"
     inkscape:cx="200"
     inkscape:cy="128"
     inkscape:window-x="0"
     inkscape:window-y="27"
     inkscape:window-maximized="0"
     inkscape:current-layer="Capa_1" /><g
     id="g12"
     transform="matrix(0.20298964,0,0,0.20298964,126.39501,12.228416)"><g
       id="g10"><path
         d="m 284.554,64.019 c -8.261,-3.391 -17.856,-1.479 -24.26,4.924 L 125.881,204.276 H 22.24 C 9.938,204.276 0,214.232 0,226.534 v 160.584 c 0,12.302 9.938,22.24 22.24,22.24 h 103.01 l 135.134,135.297 c 4.256,4.292 9.92,6.565 15.728,6.565 2.868,0 5.736,-0.56 8.532,-1.714 8.297,-3.409 13.726,-11.562 13.726,-20.544 L 298.334,84.617 c 0,-9.036 -5.447,-17.117 -13.78,-20.598 z M 150.286,371.39 c -4.167,-4.167 -9.867,-6.512 -15.765,-6.512 H 44.498 V 248.792 h 90.619 c 5.952,0 11.616,-2.345 15.783,-6.566 l 102.938,-103.641 0.036,336.627 z"
         id="path2"
         inkscape:connector-curvature="0" /><path
         d="m 516.15,306.222 c 0,-83.386 -49.584,-158.51 -126.368,-191.356 -11.165,-4.87 -24.332,0.343 -29.184,11.652 -4.816,11.291 0.433,24.368 11.724,29.202 60.316,25.901 99.331,84.937 99.331,150.52 0,65.222 -38.798,124.096 -98.826,149.996 -11.291,4.87 -16.504,17.983 -11.651,29.238 3.644,8.424 11.814,13.42 20.418,13.42 2.958,0 5.916,-0.559 8.784,-1.84 C 466.783,464.172 516.15,389.21 516.15,306.222 Z"
         id="path4"
         inkscape:connector-curvature="0" /><path
         d="m 417.632,306.131 c 0,-44.065 -26.189,-83.602 -66.684,-100.81 -11.291,-4.689 -24.35,0.487 -29.202,11.814 -4.779,11.291 0.523,24.332 11.814,29.166 24.08,10.209 39.573,33.675 39.573,59.829 0,25.847 -15.386,49.277 -39.194,59.612 -11.255,4.87 -16.468,18.001 -11.508,29.238 3.644,8.388 11.814,13.384 20.418,13.384 2.958,0 5.916,-0.56 8.82,-1.857 40.079,-17.386 65.963,-56.798 65.963,-100.376 z"
         id="path6"
         inkscape:connector-curvature="0" /><path
         d="m 427.643,26.79 c -11.255,-4.906 -24.368,0.397 -29.238,11.688 -4.816,11.292 0.415,24.333 11.67,29.202 95.651,41.017 157.41,134.647 157.41,238.542 0,103.587 -61.597,197.001 -156.851,238.108 -11.292,4.889 -16.504,17.965 -11.652,29.202 3.644,8.441 11.814,13.474 20.437,13.474 2.939,0 5.897,-0.613 8.766,-1.821 C 539.853,537.026 611.965,427.54 611.965,306.223 612,184.507 539.617,74.805 427.643,26.79 Z"
         id="path8"
         inkscape:connector-curvature="0" /></g></g><g
     id="g14"
     transform="matrix(0.20298964,0,0,0.20298964,126.39501,12.228416)" /><g
     id="g16"
     transform="matrix(0.20298964,0,0,0.20298964,126.39501,12.228416)" /><g
     id="g18"
     transform="matrix(0.20298964,0,0,0.20298964,126.39501,12.228416)" /><g
     id="g20"
     transform="matrix(0.20298964,0,0,0.20298964,126.39501,12.228416)" /><g
     id="g22"
     transform="matrix(0.20298964,0,0,0.20298964,126.39501,12.228416)" /><g
     id="g24"
     transform="matrix(0.20298964,0,0,0.20298964,126.39501,12.228416)" /><g
     id="g26"
     transform="matrix(0.20298964,0,0,0.20298964,126.39501,12.228416)" /><g
     id="g28"
     transform="matrix(0.20298964,0,0,0.20298964,126.39501,12.228416)" /><g
     id="g30"
     transform="matrix(0.20298964,0,0,0.20298964,126.39501,12.228416)" /><g
     id="g32"
     transform="matrix(0.20298964,0,0,0.20298964,126.39501,12.228416)" /><g
     id="g34"
     transform="matrix(0.20298964,0,0,0.20298964,126.39501,12.228416)" /><g
     id="g36"
     transform="matrix(0.20298964,0,0,0.20298964,126.39501,12.228416)" /><g
     id="g38"
     transform="matrix(0.20298964,0,0,0.20298964,126.39501,12.228416)" /><g
     id="g40"
     transform="matrix(0.20298964,0,0,0.20298964,126.39501,12.228416)" /><g
     id="g42"
     transform="matrix(0.20298964,0,0,0.20298964,126.39501,12.228416)" /></svg>